<svg id="Layer_1" data-name="Layer 1" xmlns="http://www.w3.org/2000/svg" viewBox="0 0 245.21 62.58"><defs><style>.cls-1{fill:#231f20}</style></defs><title>david-brower-center</title><path class="cls-1" d="M7.12 61.42v4a4 4 0 0 0 .21 1.42c.24.36 1 .75 3.17.75a6.24 6.24 0 0 0 4.5-1.7 6.5 6.5 0 0 0 1.49-4.45 6.66 6.66 0 0 0-1.79-4.7c-1.75-1.84-3.87-2.11-6.09-2.11a4.91 4.91 0 0 0-1.21.13.33.33 0 0 0-.23.37V61.44zm-1.57-2v-4a.92.92 0 0 0-.8-1.06 3.73 3.73 0 0 0-.63-.06.13.13 0 0 1-.15-.11C3.93 54 4 54 4.23 54c.84 0 2 .06 2.11.06S7.73 54 8.85 54c1.85 0 5.26-.17 7.47 2.12a6.68 6.68 0 0 1 1.81 4.73 7.61 7.61 0 0 1-2 5.26 7.42 7.42 0 0 1-5.65 2.14c-1.6 0-4-.22-4.14-.22s-1.27.06-1.83.06c-.21 0-.3 0-.3-.15a.12.12 0 0 1 .15-.11 2.6 2.6 0 0 0 .56-.07 1 1 0 0 0 .54-1c.09-.78.09-2.26.09-4v-3.35zM26.34 61.92c.09 0 .09-.05.07-.13l-1.77-5c-.09-.28-.19-.28-.28 0l-1.64 5c0 .09 0 .13.06.13h3.56zm-1.94-7.45c.22-.61.3-.73.41-.73s.18.09.41.67 3.21 8.4 4.34 11.24c.67 1.66 1.21 2 1.6 2.07a2.52 2.52 0 0 0 .75.11c.11 0 .18 0 .18.11s-.17.15-.37.15h-2.93c-.35 0-.56 0-.56-.13a.14.14 0 0 1 .13-.13.35.35 0 0 0 .11-.5l-1.73-4.58a.16.16 0 0 0-.17-.11h-4a.19.19 0 0 0-.19.15L21.27 66a3.83 3.83 0 0 0-.27 1.29.63.63 0 0 0 .71.54h.19c.13 0 .19 0 .19.11s-.11.15-.28.15c-.44 0-1.25-.06-1.45-.06s-1.23.06-2.11.06c-.24 0-.35 0-.35-.15a.14.14 0 0 1 .17-.11h.54c.85-.12 1.23-.82 1.56-1.75zM36.65 65.82c1.08-2.5 3.58-9 4-10.34a2.85 2.85 0 0 0 .17-.71.46.46 0 0 0-.24-.43 2.28 2.28 0 0 0-.71-.08c-.11 0-.21 0-.21-.1s.12-.15.41-.15c.74 0 1.6.06 1.83.06s.9-.07 1.44-.07c.2 0 .32 0 .32.13s-.08.13-.23.13a1.67 1.67 0 0 0-.89.23 3.54 3.54 0 0 0-1 1.75c-.21.53-1.14 2.76-2.09 5.06-1.16 2.7-2 4.7-2.45 5.64-.52 1.12-.6 1.41-.78 1.41s-.32-.26-.67-1.16L31 55.78a1.8 1.8 0 0 0-1.34-1.44 2.78 2.78 0 0 0-.66-.08.12.12 0 0 1-.15-.13c-.05-.13.15-.13.44-.13.9 0 2 .06 2.18.06s1-.06 1.74-.06c.33 0 .5 0 .5.13s-.06.13-.19.13a2.22 2.22 0 0 0-.71.1.38.38 0 0 0-.24.37 7.13 7.13 0 0 0 .5 1.55zM47.58 62.69c0 1.79 0 3.26.09 4a.9.9 0 0 0 .72 1 7.24 7.24 0 0 0 .84.07.12.12 0 0 1 .15.11c0 .1-.1.15-.3.15-1 0-2.2-.06-2.29-.06s-1.27.14-1.79.14c-.21 0-.3 0-.3-.15a.12.12 0 0 1 .15-.11 2.67 2.67 0 0 0 .56-.07 1 1 0 0 0 .54-1c.1-.78.1-2.26.1-4v-3.36-4a.93.93 0 0 0-.64-1 2.64 2.64 0 0 0-.58-.08.12.12 0 0 1-.15-.1c0-.11.09-.15.3-.15.62 0 1.79.06 1.88.06s1.2-.14 1.76-.14c.21 0 .3 0 .3.15a.13.13 0 0 1-.15.1 3.23 3.23 0 0 0-.47.06.89.89 0 0 0-.69 1.06V62.65zM54.77 61.42v4a3.94 3.94 0 0 0 .2 1.42c.24.36 1 .75 3.17.75a6.25 6.25 0 0 0 4.43-1.73 6.51 6.51 0 0 0 1.49-4.45 6.66 6.66 0 0 0-1.79-4.7c-1.75-1.84-3.88-2.11-6.1-2.11a4.92 4.92 0 0 0-1.21.13.33.33 0 0 0-.22.37V61.41zm-1.6-2v-4a.91.91 0 0 0-.8-1.06 3.8 3.8 0 0 0-.63-.06.13.13 0 0 1-.15-.11c0-.11.09-.15.3-.15.84 0 2 .06 2.1.06s1.36-.1 2.47-.1c1.85 0 5.26-.17 7.47 2.12a6.67 6.67 0 0 1 1.8 4.73 7.61 7.61 0 0 1-2 5.26 7.41 7.41 0 0 1-5.65 2.14c-1.6 0-3.95-.22-4.13-.22s-1.26.06-1.83.06c-.2 0-.3 0-.3-.15a.12.12 0 0 1 .18-.11 2.62 2.62 0 0 0 .56-.07 1 1 0 0 0 .54-1c.1-.78.1-2.26.1-4v-3.35zM76.74 61.79v4c.06.91.06 1.17.63 1.45a4.42 4.42 0 0 0 1.64.28 2.49 2.49 0 0 0 2.63-2.64 4.47 4.47 0 0 0-1.81-3.73 3.09 3.09 0 0 0-1.55-.54h-1.45a.11.11 0 0 0-.11.13v1.06zm0-2a.17.17 0 0 0 .13.2 6.36 6.36 0 0 0 1.13.11c1 0 1.3 0 1.7-.48a2.89 2.89 0 0 0 .67-1.88c0-1.55-.69-3.21-2.51-3.21a4.36 4.36 0 0 0-.9.09c-.16 0-.22.09-.22.2v5zm-1.49-.41v-4a.92.92 0 0 0-.8-1.06 3.76 3.76 0 0 0-.63-.06.13.13 0 0 1-.15-.11c0-.11.09-.15.3-.15.84 0 2 .06 2.1.06.45 0 1.18-.06 2-.06 3.06 0 3.73 1.87 3.73 2.8a4.69 4.69 0 0 1-1.8 3.35 4.35 4.35 0 0 1 3.22 3.93c0 2-1.56 4.06-4.75 4.06-.39.01-2.29-.14-2.47-.14s-1.27.06-1.82.06c-.21 0-.3 0-.3-.15a.12.12 0 0 1 .15-.11 2.6 2.6 0 0 0 .56-.07 1 1 0 0 0 .54-1c.1-.78.1-2.26.1-4v-3.32zM88 61a.24.24 0 0 0 .13.22 5.15 5.15 0 0 0 2 .29 2.4 2.4 0 0 0 1.4-.35 3.4 3.4 0 0 0 1.13-2.87c0-2.33-1.23-3.73-3.22-3.73a5.68 5.68 0 0 0-1.25.11.23.23 0 0 0-.15.23V61zm-1.49-1.62v-4a.92.92 0 0 0-.8-1.06 3.74 3.74 0 0 0-.71-.06.13.13 0 0 1-.15-.11c.05-.15.15-.15.35-.15.84 0 2 .06 2.1.06s1.63-.06 2.2-.06a5.78 5.78 0 0 1 3.42.82 3.27 3.27 0 0 1 1.28 2.54c0 1.38-.58 2.76-2.26 4.31 1.53 2 2.8 3.61 3.88 4.77a3.88 3.88 0 0 0 2.27 1.34 4.85 4.85 0 0 0 .73.05.16.16 0 0 1 .17.11c0 .11-.11.15-.45.15h-1.32a3.78 3.78 0 0 1-2-.36A9.84 9.84 0 0 1 92.71 65c-.78-1-1.65-2.28-2-2.76a.31.31 0 0 0-.24-.11h-2.29a.12.12 0 0 0-.13.15v.45c0 1.79 0 3.26.09 4a.9.9 0 0 0 .73 1 7.14 7.14 0 0 0 .84.07.12.12 0 0 1 .15.11c0 .1-.1.15-.3.15-1 0-2.2-.06-2.3-.06s-1.26.1-1.78.1c-.21 0-.3 0-.3-.15a.12.12 0 0 1 .14-.11 2.62 2.62 0 0 0 .56-.07 1 1 0 0 0 .54-1c.09-.78.09-2.26.09-4v-3.36zM105.34 67.65c1.68 0 5.14-1 5.14-6.4 0-4.47-2.72-6.87-5.66-6.87-3.11 0-5.44 2-5.44 6.13 0 4.34 2.61 7.14 6 7.14M105 53.74c4.19 0 7.32 2.65 7.32 7a7.31 7.31 0 0 1-7.44 7.62c-5.11 0-7.23-4-7.23-7.32a7.22 7.22 0 0 1 7.35-7.3M127.4 65.52h.07c.5-1.71 2.22-7.12 2.87-9.51a4.07 4.07 0 0 0 .21-1.19c0-.34-.21-.56-1.06-.56a.15.15 0 0 1-.17-.13c0-.09.1-.13.32-.13.95 0 1.73.06 1.9.06s.93-.06 1.46-.06c.17 0 .26 0 .26.11a.14.14 0 0 1-.17.14 2.59 2.59 0 0 0-.63.1c-.56.2-.86 1-1.22 2-.82 2.36-2.7 8.29-3.43 10.38-.48 1.38-.58 1.6-.78 1.6s-.3-.25-.56-1L122.87 57c-.67 1.79-3.22 8.61-3.89 10.35-.3.78-.39 1-.62 1s-.28-.2-.65-1.48l-3.32-11c-.3-1-.54-1.27-1-1.45a3.13 3.13 0 0 0-.84-.12c-.09 0-.17 0-.17-.13s.11-.13.3-.13c1 0 2 .06 2.2.06s1-.06 1.92-.06c.26 0 .33.06.33.13s-.09.13-.18.13a1.73 1.73 0 0 0-.73.12.47.47 0 0 0-.24.44 15.24 15.24 0 0 0 .35 1.72c.28 1.19 2.22 8 2.5 9l3.95-10.62c.28-.76.36-.86.47-.86a1.25 1.25 0 0 1 .46.87zM149.3 61.06a.26.26 0 0 0 .13.22 5.17 5.17 0 0 0 2 .3 2.42 2.42 0 0 0 1.4-.36 3.39 3.39 0 0 0 1.14-2.86c0-2.33-1.23-3.73-3.23-3.73a6 6 0 0 0-1.25.11.23.23 0 0 0-.15.22v6.1zm-1.49-1.62v-4a.92.92 0 0 0-.8-1.06 3.46 3.46 0 0 0-.63-.06.13.13 0 0 1-.15-.11c0-.11.1-.15.3-.15.84 0 2 .05 2.11.05s1.62-.05 2.2-.05a5.76 5.76 0 0 1 3.41.82 3.27 3.27 0 0 1 1.29 2.54c0 1.38-.58 2.76-2.25 4.31 1.52 2 2.79 3.61 3.87 4.77a3.86 3.86 0 0 0 2.27 1.34 4.53 4.53 0 0 0 .73.06.16.16 0 0 1 .17.11c0 .11-.11.15-.45.15h-1.32a3.79 3.79 0 0 1-2-.35A9.66 9.66 0 0 1 154 65c-.78-1-1.66-2.27-2-2.76a.31.31 0 0 0-.25-.11h-2.29a.12.12 0 0 0-.13.14v.45c0 1.79 0 3.26.09 4a.89.89 0 0 0 .73 1 7.43 7.43 0 0 0 .84.07.12.12 0 0 1 .15.11c0 .09-.09.15-.3.15-1 0-2.2-.06-2.29-.06s-1.19.06-1.75.06c-.21 0-.3 0-.3-.15a.12.12 0 0 1 .15-.11 2.72 2.72 0 0 0 .56-.07 1 1 0 0 0 .54-1c.1-.78.1-2.26.1-4v-3.28zM135.81 59.43v-4a.91.91 0 0 0-.8-1.06 3.21 3.21 0 0 0-.63-.06.13.13 0 0 1-.15-.11c0-.12.1-.15.3-.15.84 0 2 .06 2.1.06h6.17a4.73 4.73 0 0 0 .8-.09 1.33 1.33 0 0 1 .26-.09c.05 0 .07.08.07.17s-.09.36-.15.88c0 .19-.05 1-.09 1.23a.21.21 0 0 1-.13.2c-.11 0-.15-.1-.15-.25a2 2 0 0 0-.11-.67c-.13-.3-.32-.52-1.33-.64-.32 0-4.25-.05-4.46-.05s-.12.05-.12.19v5.14c0 .13 0 .18.12.18h4.87a1.23 1.23 0 0 0 .88-.26.61.61 0 0 1 .28-.24c.06 0 .09 0 .09.15s-.09.43-.15 1c0 .37-.08 1.06-.08 1.19s0 .36-.13.36a.14.14 0 0 1-.13-.17 1.86 1.86 0 0 0-.08-.61.92.92 0 0 0-1-.65c-.5-.06-4.25-.09-4.57-.09a.12.12 0 0 0-.13.13V66.56c.06 1.29 2.24.92 4.07.92a5.32 5.32 0 0 0 1.79-.21 1.49 1.49 0 0 0 .84-1.34c0-.2.08-.28.17-.28s.11.15.11.28a17.54 17.54 0 0 1-.24 1.81c-.13.48-.28.48-1 .48-2.81 0-6-.11-6.51-.11-.09 0-1.27.06-1.83.06-.21 0-.3 0-.3-.15a.12.12 0 0 1 .15-.11 2.48 2.48 0 0 0 .56-.08 1 1 0 0 0 .54-1c.1-.78.1-2.26.1-4v-3.4zM167.1 66.34a7.14 7.14 0 0 1-2.25-5.52 7.43 7.43 0 0 1 2.09-5.09c1.11-1.12 2.81-2 5.69-2a16.49 16.49 0 0 1 2.7.22 16.05 16.05 0 0 0 1.9.28c.21 0 .24.09.24.2s-.05.37-.09 1 0 1.64-.05 1.92-.06.39-.17.39-.16-.06-.16-.32a2.56 2.56 0 0 0-.79-1.9 6.19 6.19 0 0 0-3.73-1.06c-2.48 0-3.64.73-4.29 1.36a6.26 6.26 0 0 0-1.67 4.87 6.73 6.73 0 0 0 6.73 6.82 4.31 4.31 0 0 0 3.25-.93 3.59 3.59 0 0 0 .69-1.57c0-.2.07-.28.18-.28s.13.13.13.28a19 19 0 0 1-.41 2.39.64.64 0 0 1-.48.54 10.84 10.84 0 0 1-3.36.43 8.62 8.62 0 0 1-6.15-2M181.92 59.41v-4a.92.92 0 0 0-.8-1.06 3.24 3.24 0 0 0-.63-.06.13.13 0 0 1-.15-.11c0-.11.09-.15.3-.15.84 0 2 .05 2.11.05h6.17a5.78 5.78 0 0 0 .8-.09 1.43 1.43 0 0 1 .26-.09c.06 0 .08.07.08.17s-.09.36-.15.88c0 .18-.06 1-.09 1.23a.22.22 0 0 1-.13.21c-.12 0-.15-.09-.15-.24a2 2 0 0 0-.11-.67c-.13-.3-.32-.52-1.32-.64h-4.46c-.21 0-.11 0-.11.18v5.14c0 .13 0 .19.11.19h4.87a1.26 1.26 0 0 0 .88-.26.55.55 0 0 1 .28-.24c.05 0 .09 0 .09.15s-.09.43-.15 1c0 .37-.08 1.06-.08 1.19s0 .35-.13.35a.14.14 0 0 1-.13-.16 1.9 1.9 0 0 0-.07-.62.92.92 0 0 0-1-.65c-.5-.05-4.25-.09-4.57-.09a.12.12 0 0 0-.13.13V66.59c.06 1.28 2.24.91 4.07.91a5.42 5.42 0 0 0 1.79-.2 1.48 1.48 0 0 0 .83-1.34c0-.21.08-.28.17-.28s.11.15.11.28-.15 1.42-.24 1.81-.28.49-1 .49c-2.81 0-6-.11-6.51-.11-.09 0-1.27.06-1.83.06-.2 0-.29 0-.29-.15a.12.12 0 0 1 .15-.11 2.94 2.94 0 0 0 .56-.07 1 1 0 0 0 .54-1c.09-.79.09-2.26.09-4v-3.47zM195.43 65.56c0 1.53.23 2 .73 2.16a3.86 3.86 0 0 0 .93.11.12.12 0 0 1 .15.11c0 .11-.11.15-.34.15-1.06 0-1.81-.06-2-.06s-.95.06-1.79.06c-.18 0-.3 0-.3-.15a.13.13 0 0 1 .15-.11 2.54 2.54 0 0 0 .76-.11c.47-.13.56-.67.56-2.37V54.68c0-.73.05-.93.21-.93a2.26 2.26 0 0 1 .65.59c.28.32 3.06 3.32 5.93 6.4 1.85 2 3.88 4.25 4.48 4.86l-.21-9.47c0-1.21-.15-1.62-.73-1.77a4.84 4.84 0 0 0-.91-.09c-.13 0-.15-.06-.15-.13s.2-.14.45-.14c.84 0 1.73.05 1.94.05s.82-.05 1.59-.05c.21 0 .33 0 .33.13a.17.17 0 0 1-.21.13 1.63 1.63 0 0 0-.45.06c-.62.13-.69.53-.69 1.66V66.9c0 1.23 0 1.32-.17 1.32s-.44-.22-1.42-1.22c-.2-.19-2.89-2.93-4.87-5.05-2.16-2.33-4.26-4.68-4.86-5.35zM216.35 62.69c0 1.79 0 3.26.09 4a.9.9 0 0 0 .72 1 8 8 0 0 0 .84.07.12.12 0 0 1 .15.11c0 .09-.09.15-.3.15-1 0-2.2-.06-2.29-.06s-1.27.06-1.83.06c-.2 0-.3 0-.3-.15a.12.12 0 0 1 .15-.11 2.83 2.83 0 0 0 .56-.07 1 1 0 0 0 .55-1c.09-.79.09-2.26.09-4v-7.88h-2.76c-1.16 0-1.61.15-1.91.59a3.64 3.64 0 0 0-.32.58.2.2 0 0 1-.19.18c-.06 0-.09-.05-.09-.17s.37-1.79.41-1.94a.66.66 0 0 1 .19-.35 3.5 3.5 0 0 0 .82.22c.54.06 1.25.09 1.47.09h7a9.14 9.14 0 0 0 1.84-.18c.1 0 .1.11.1.23 0 .56-.06 1.84-.06 2.05s-.06.24-.13.24-.15-.01-.15-.28v-.2c-.07-.56-.5-1-2.3-1h-2.35v7.88zM238.17 61a.25.25 0 0 0 .13.23 5.12 5.12 0 0 0 2 .3 2.42 2.42 0 0 0 1.4-.36 3.39 3.39 0 0 0 1.14-2.87c0-2.33-1.23-3.73-3.23-3.73a5.42 5.42 0 0 0-1.25.11.22.22 0 0 0-.15.22V61zm-1.49-1.62v-4a.92.92 0 0 0-.8-1.06 3.63 3.63 0 0 0-.63-.06.13.13 0 0 1-.15-.11c0-.11.1-.15.3-.15.84 0 2 .06 2.11.06s1.62-.06 2.2-.06a5.73 5.73 0 0 1 3.41.82 3.25 3.25 0 0 1 1.29 2.53c0 1.38-.58 2.75-2.25 4.31 1.53 2 2.79 3.62 3.87 4.77a3.86 3.86 0 0 0 2.28 1.34 4.37 4.37 0 0 0 .72.06.16.16 0 0 1 .17.11c0 .11-.11.15-.45.15h-1.32a3.76 3.76 0 0 1-2-.36 9.71 9.71 0 0 1-2.57-2.73c-.78-1-1.66-2.27-2-2.76a.3.3 0 0 0-.25-.11h-2.29a.12.12 0 0 0-.13.15v.45c0 1.79 0 3.27.09 4a.91.91 0 0 0 .73 1 8.23 8.23 0 0 0 .84.07.12.12 0 0 1 .15.2c0 .09-.1.15-.3.15-1 0-2.2-.06-2.29-.06s-1.19.06-1.75.06c-.21 0-.3 0-.3-.15a.12.12 0 0 1 .15-.11 3 3 0 0 0 .56-.07 1 1 0 0 0 .54-1c.1-.78.1-2.26.1-4v-3.4zM224.68 59.41v-4a.92.92 0 0 0-.8-1.06 3.43 3.43 0 0 0-.63-.05.13.13 0 0 1-.15-.12c0-.11.09-.15.3-.15.84 0 2 .05 2.11.05h6.18a6.16 6.16 0 0 0 .8-.09 1.16 1.16 0 0 1 .26-.1c.06 0 .07.07.07.17s-.09.36-.15.88c0 .18-.05 1-.09 1.23a.21.21 0 0 1-.13.2c-.11 0-.15-.09-.15-.24a2 2 0 0 0-.11-.67c-.13-.3-.32-.52-1.32-.64-.32 0-4.25-.06-4.46-.06s-.11.06-.11.19v5.14c0 .13 0 .19.11.19h4.87a1.23 1.23 0 0 0 .82-.28.57.57 0 0 1 .28-.24c.06 0 .1 0 .1.15s-.1.43-.15 1c0 .37-.08 1.06-.08 1.19s0 .35-.13.35a.14.14 0 0 1-.13-.16 2 2 0 0 0-.07-.62.93.93 0 0 0-1-.65c-.5-.05-4.25-.1-4.57-.1a.12.12 0 0 0-.13.14V66.5c.06 1.29 2.24.91 4.07.91a5.39 5.39 0 0 0 1.79-.2 1.49 1.49 0 0 0 .84-1.34c0-.21.07-.28.17-.28s.11.15.11.28-.15 1.42-.24 1.81-.28.48-1 .48c-2.81 0-6-.11-6.51-.11-.09 0-1.27.05-1.83.05-.21 0-.3 0-.3-.15a.12.12 0 0 1 .15-.12 2.94 2.94 0 0 0 .56-.07 1 1 0 0 0 .54-1c.09-.79.09-2.26.09-4v-3.35zM126.53 40.39a82.89 82.89 0 0 1-54.84-20.62l-.69-.56-.45-.4h14.72a21.39 21.39 0 0 1 14.25-5.41 21.38 21.38 0 0 1 14.15 5.32 51.19 51.19 0 0 1 34.1-12.94 51.17 51.17 0 0 1 34.18 13l.05.09.21.13-.19.17a82.94 82.94 0 0 1-55.48 21.19zm0-.46a82.47 82.47 0 0 0 54.73-20.67h-67.5a32 32 0 0 1-21.33 8.11 31.93 31.93 0 0 1-15.71-4.1 82.39 82.39 0 0 0 49.81 16.67zm-34.1-13a31.49 31.49 0 0 0 20.63-7.65H99.61a21.35 21.35 0 0 1-14.23 5.41 21.39 21.39 0 0 1-7.72-1.43 31.49 31.49 0 0 0 14.81 3.67zm-7.09-2.7a20.87 20.87 0 0 0 10.46-2.79 10.82 10.82 0 0 1-3.36.53 10.8 10.8 0 0 1-7.08-2.63A10.81 10.81 0 0 1 78.28 22a10.85 10.85 0 0 1-3.36-.53 20.88 20.88 0 0 0 10.42 2.77zm7.1-2.7a10.34 10.34 0 0 0 6.45-2.25H86a10.34 10.34 0 0 0 6.45 2.25zm-14.16 0a10.33 10.33 0 0 0 6.45-2.25H71.82a10.37 10.37 0 0 0 6.46 2.25zm21.38-2.3zm14.15 0zm67.44-.4a50.72 50.72 0 0 0-33.48-12.59 50.72 50.72 0 0 0-33.5 12.56h67zM113 18.8a10.33 10.33 0 0 0-6.44-2.24 10.32 10.32 0 0 0-6.44 2.24H113zm-14.15 0a10.34 10.34 0 0 0-6.44-2.24A10.34 10.34 0 0 0 86 18.8h12.88zm.63-.07a10.79 10.79 0 0 1 7.08-2.63 10.8 10.8 0 0 1 3.38.54 20.9 20.9 0 0 0-10.45-2.78 20.92 20.92 0 0 0-10.44 2.77 10.86 10.86 0 0 1 3.36-.53 10.81 10.81 0 0 1 7.07 2.63z" transform="translate(-3.93 -5.78)"/></svg>