<svg id="Layer_1" data-name="Layer 1" xmlns="http://www.w3.org/2000/svg" viewBox="0 0 836.49 314.93"><defs><style>.cls-1{fill:#787878}</style></defs><title>footer-bgnd</title><path class="cls-1" d="M759.91 243.08a117.79 117.79 0 0 1 .68 83.25q-.2.57-.41 1.14l-.3.8-.31-.8-7.18-18.64a30.39 30.39 0 0 1-14.45-16.13 30.39 30.39 0 0 1-.17-21.48 72.75 72.75 0 0 1-34.59-38.61 72.72 72.72 0 0 1-.2-52l.06-.14.13-.33.32.16a117.86 117.86 0 0 1 56.45 62.75zm-.61.24a117.19 117.19 0 0 0-55.38-62l34.5 89.52A45.41 45.41 0 0 1 760.06 295a45.38 45.38 0 0 1 2.59 22.93 117.08 117.08 0 0 0-3.36-74.57zm.16 51.87a44.75 44.75 0 0 0-20.68-23.44l6.87 17.83a30.34 30.34 0 0 1 14.45 16.1 30.39 30.39 0 0 1 2 11 44.75 44.75 0 0 0-2.7-21.51zm0 10.78a29.66 29.66 0 0 0-9-12.4 15.38 15.38 0 0 1 2.43 4.19 15.35 15.35 0 0 1 .13 10.73 15.36 15.36 0 0 1 7.1 8 15.42 15.42 0 0 1 1 4.73 29.67 29.67 0 0 0-1.63-15.22zm-7.2-8a14.69 14.69 0 0 0-6.28-7.4l6.6 17.11a14.7 14.7 0 0 0-.32-9.71zm7.23 18.77a14.68 14.68 0 0 0-6.28-7.4l6.6 17.12a14.74 14.74 0 0 0-.32-9.71zm-14-27.17zm-7.24-18.77zm-35-89.22a72.07 72.07 0 0 0 .46 50.83 72.08 72.08 0 0 0 33.78 38l-34.23-88.83zM738.17 272a14.68 14.68 0 0 0 .32 9.69 14.67 14.67 0 0 0 6.27 7.4L738.17 272zm7.23 18.76a14.69 14.69 0 0 0 .32 9.69 14.7 14.7 0 0 0 6.27 7.41l-6.59-17.1zm-.4-.76a15.33 15.33 0 0 1-7.1-8 15.35 15.35 0 0 1-1-4.75 29.7 29.7 0 0 0 1.65 15.28 29.72 29.72 0 0 0 9 12.43 15.43 15.43 0 0 1-2.42-4.19A15.36 15.36 0 0 1 745 290zM517.19 279.58a171.35 171.35 0 0 1-117.89 27.77l-1.76-.22-1.23-.17 1-.69L421.48 290a44.21 44.21 0 0 1 18.23-25.7 44.2 44.2 0 0 1 30.42-7.16 105.83 105.83 0 0 1 43.63-61.5 105.79 105.79 0 0 1 73.67-17h.22l.51.08-.13.51a171.45 171.45 0 0 1-70.83 100.28zm-.53-.79a170.48 170.48 0 0 0 70.13-98.54L470.92 258a66.06 66.06 0 0 1-27.27 38.49A66 66 0 0 1 412 307.56a170.32 170.32 0 0 0 104.71-28.78zm-73.54 16.93a65.1 65.1 0 0 0 26.59-36.89l-23.08 15.49A44.13 44.13 0 0 1 428.44 300h-.06a44.21 44.21 0 0 1-14.9 6.43 65.1 65.1 0 0 0 29.65-10.75zm-15.28 3.53a43.14 43.14 0 0 0 14.69-16.76 22.37 22.37 0 0 1-5.16 4.79 22.33 22.33 0 0 1-15.18 3.64 22.34 22.34 0 0 1-9.12 12.67 22.43 22.43 0 0 1-6.38 3 43.16 43.16 0 0 0 21.08-7.25zm9.07-12.81a21.38 21.38 0 0 0 8.48-11.29L423.24 290a21.39 21.39 0 0 0 13.67-3.57zm-24.3 16.31a21.36 21.36 0 0 0 8.48-11.29l-22.16 14.87a21.44 21.44 0 0 0 13.68-3.58zm34-28.58zm24.29-16.32zm115.3-78.38a104.85 104.85 0 0 0-72 17 104.86 104.86 0 0 0-43 60.15l115-77.17zm-117.11 78.6a21.35 21.35 0 0 0-13.64 3.57 21.34 21.34 0 0 0-8.45 11.27l22.12-14.84zm-24.29 16.3a21.38 21.38 0 0 0-13.64 3.57 21.38 21.38 0 0 0-8.49 11.28l22.13-14.85zm1-.86a22.3 22.3 0 0 1 9.2-12.67 22.33 22.33 0 0 1 6.42-3 43.21 43.21 0 0 0-21.14 7.26 43.24 43.24 0 0 0-14.72 16.79 22.45 22.45 0 0 1 5.16-4.78 22.34 22.34 0 0 1 15.17-3.63zM874 258.08a69.27 69.27 0 0 1-31.29-38.49l-.07-.2H842.93a42.74 42.74 0 0 1 30.16 4.85 42.76 42.76 0 0 1 19.27 23.6 17.86 17.86 0 0 1 12.46 2.06 17.86 17.86 0 0 1 8 9.86l10.18 5.8.44.25-.49.1-.7.14a69.23 69.23 0 0 1-48.28-8zm.19-.33a68.81 68.81 0 0 0 43 8.74 26.67 26.67 0 0 1-13.08-3.59 26.69 26.69 0 0 1-12-14.77l-48.84-28.18a68.88 68.88 0 0 0 31 37.8zm30.1 4.81a26.3 26.3 0 0 0 12.25 3.52 17.86 17.86 0 0 1-6.18-2.19 17.83 17.83 0 0 1-8-9.85l-9.73-5.61a26.3 26.3 0 0 0 11.73 14.14zm6.26 1a17.44 17.44 0 0 0 8.69 2.35 9.06 9.06 0 0 1-2.65-1 9 9 0 0 1-4-4.86 9 9 0 0 1-6.22-1.05 9 9 0 0 1-2.21-1.79 17.43 17.43 0 0 0 6.38 6.35zm-4-4.91a8.64 8.64 0 0 0 5.61 1.07l-9.34-5.39a8.64 8.64 0 0 0 3.73 4.32zm10.24 5.91a8.66 8.66 0 0 0 5.61 1.07l-9.4-5.39a8.63 8.63 0 0 0 3.73 4.32zM902.27 254zM892 248.06zm-48.62-28.44l48.46 28a42.36 42.36 0 0 0-19-23.07 42.36 42.36 0 0 0-29.47-4.89zm49.36 28.48l9.32 5.38a8.62 8.62 0 0 0-3.73-4.31 8.63 8.63 0 0 0-5.6-1.07zM903 254l9.33 5.38a8.64 8.64 0 0 0-3.73-4.32A8.64 8.64 0 0 0 903 254zm-.43-.32a9 9 0 0 1 6.21 1.05 9.07 9.07 0 0 1 2.21 1.79 17.47 17.47 0 0 0-6.39-6.36 17.46 17.46 0 0 0-8.72-2.35 9 9 0 0 1 2.67 1 9 9 0 0 1 4 4.86zM144.36 196.15a266.23 266.23 0 0 1-56.86-182l.05-.81.8.12.35.05a164.27 164.27 0 0 1 100.72 60.31 164.33 164.33 0 0 1 35.15 111.68 68.64 68.64 0 0 1 41.54 25.09 68.65 68.65 0 0 1 14.68 46.66l27.94 35.44 1.2 1.52-1.9-.33q-1.35-.24-2.7-.51a266.08 266.08 0 0 1-161-97.25zm1.16-.92a264.47 264.47 0 0 0 141 92.45A102.51 102.51 0 0 1 245 256.23a102.58 102.58 0 0 1-22-69.88L88.85 16.16a264.72 264.72 0 0 0 56.65 179.06zm100.6 60.08a101.08 101.08 0 0 0 38.69 30 68.65 68.65 0 0 1-19-16.61l-.08-.09A68.53 68.53 0 0 1 251.14 222l-26.73-33.9a101.08 101.08 0 0 0 21.71 67.2zm20.9 12.5a67 67 0 0 0 27.69 20.77 34.83 34.83 0 0 1-8-7.41 34.69 34.69 0 0 1-7.43-23.07 34.68 34.68 0 0 1-20.7-12.62 34.73 34.73 0 0 1-5.34-9.54 67 67 0 0 0 13.72 31.78zm-7.3-23.25a33.21 33.21 0 0 0 18.5 11.8l-25.65-32.53a33.19 33.19 0 0 0 7.15 20.73zm28.13 35.68a33.29 33.29 0 0 0 18.5 11.81l-25.65-32.53a33.17 33.17 0 0 0 7.15 20.73zm-36.68-58.46zm-28.11-35.68zM90 15.28l133.17 168.87a162.83 162.83 0 0 0-34.91-109.41A162.81 162.81 0 0 0 90 15.28zm135.59 172l25.61 32.48a33.14 33.14 0 0 0-7.15-20.7 33.16 33.16 0 0 0-18.46-11.78zm28.12 35.67l25.62 32.5a33.2 33.2 0 0 0-7.17-20.73 33.19 33.19 0 0 0-18.45-11.78zm-1.07-1.74a34.69 34.69 0 0 1 20.69 12.61 34.86 34.86 0 0 1 5.35 9.53A67.14 67.14 0 0 0 265 211.51a67.09 67.09 0 0 0-27.78-20.81 34.68 34.68 0 0 1 8.07 7.44 34.63 34.63 0 0 1 7.43 23.06z" transform="translate(-86.96 -13.36)"/></svg>