<svg id="Layer_1" data-name="Layer 1" xmlns="http://www.w3.org/2000/svg" viewBox="0 0 245.21 62.58"><defs><style>.cls-1{fill:#231f20;}</style></defs><title>david-brower-center</title><path class="cls-1" d="M7.12,61.42c0,2,0,3.69,0,4a4,4,0,0,0,.21,1.42c0.24,0.36,1,.75,3.17.75A6.24,6.24,0,0,0,15,65.89a6.5,6.5,0,0,0,1.49-4.45,6.66,6.66,0,0,0-1.79-4.7c-1.75-1.84-3.87-2.11-6.09-2.11a4.91,4.91,0,0,0-1.21.13,0.33,0.33,0,0,0-.23.37c0,0.64,0,2.54,0,4v2.31Zm-1.57-2c0-2.91,0-3.43,0-4a0.92,0.92,0,0,0-.8-1.06,3.73,3.73,0,0,0-.63-0.06,0.13,0.13,0,0,1-.15-0.11C3.93,54,4,54,4.23,54c0.84,0,2,.06,2.11.06S7.73,54,8.85,54c1.85,0,5.26-.17,7.47,2.12a6.68,6.68,0,0,1,1.81,4.73,7.61,7.61,0,0,1-2,5.26,7.42,7.42,0,0,1-5.65,2.14c-1.6,0-4-.22-4.14-0.22s-1.27.06-1.83,0.06c-0.21,0-.3,0-0.3-0.15a0.12,0.12,0,0,1,.15-0.11,2.6,2.6,0,0,0,.56-0.07,1,1,0,0,0,.54-1c0.09-.78.09-2.26,0.09-4V59.41Z" transform="translate(-3.93 -5.78)"/><path class="cls-1" d="M26.34,61.92c0.09,0,.09-0.05.07-0.13l-1.77-5c-0.09-.28-0.19-0.28-0.28,0l-1.64,5c0,0.09,0,.13.06,0.13h3.56ZM24.4,54.47c0.22-.61.3-0.73,0.41-0.73s0.18,0.09.41,0.67,3.21,8.4,4.34,11.24c0.67,1.66,1.21,2,1.6,2.07a2.52,2.52,0,0,0,.75.11c0.11,0,.18,0,0.18.11s-0.17.15-.37,0.15-1.64,0-2.93,0c-0.35,0-.56,0-0.56-0.13a0.14,0.14,0,0,1,.13-0.13,0.35,0.35,0,0,0,.11-0.5l-1.73-4.58a0.16,0.16,0,0,0-.17-0.11h-4a0.19,0.19,0,0,0-.19.15L21.27,66A3.83,3.83,0,0,0,21,67.29a0.63,0.63,0,0,0,.71.54H21.9c0.13,0,.19,0,0.19.11s-0.11.15-.28,0.15c-0.44,0-1.25-.06-1.45-0.06s-1.23.06-2.11,0.06c-0.24,0-.35,0-0.35-0.15a0.14,0.14,0,0,1,.17-0.11l0.54,0c0.85-.12,1.23-0.82,1.56-1.75Z" transform="translate(-3.93 -5.78)"/><path class="cls-1" d="M36.65,65.82c1.08-2.5,3.58-9,4-10.34a2.85,2.85,0,0,0,.17-0.71,0.46,0.46,0,0,0-.24-0.43,2.28,2.28,0,0,0-.71-0.08c-0.11,0-.21,0-0.21-0.1s0.12-.15.41-0.15c0.74,0,1.6.06,1.83,0.06S42.8,54,43.34,54c0.2,0,.32,0,0.32.13s-0.08.13-.23,0.13a1.67,1.67,0,0,0-.89.23,3.54,3.54,0,0,0-1,1.75c-0.21.53-1.14,2.76-2.09,5.06C38.29,64,37.45,66,37,66.94c-0.52,1.12-.6,1.41-0.78,1.41s-0.32-.26-0.67-1.16L31,55.78a1.8,1.8,0,0,0-1.34-1.44A2.78,2.78,0,0,0,29,54.26a0.12,0.12,0,0,1-.15-0.13C28.8,54,29,54,29.29,54c0.9,0,2,.06,2.18.06s1-.06,1.74-0.06c0.33,0,.5,0,0.5.13s-0.06.13-.19,0.13a2.22,2.22,0,0,0-.71.1,0.38,0.38,0,0,0-.24.37,7.13,7.13,0,0,0,.5,1.55Z" transform="translate(-3.93 -5.78)"/><path class="cls-1" d="M47.58,62.69c0,1.79,0,3.26.09,4a0.9,0.9,0,0,0,.72,1,7.24,7.24,0,0,0,.84.07,0.12,0.12,0,0,1,.15.11c0,0.1-.1.15-0.3,0.15-1,0-2.2-.06-2.29-0.06S45.52,68.1,45,68.1c-0.21,0-.3,0-0.3-0.15a0.12,0.12,0,0,1,.15-0.11,2.67,2.67,0,0,0,.56-0.07,1,1,0,0,0,.54-1c0.1-.78.1-2.26,0.1-4V59.41c0-2.91,0-3.43,0-4a0.93,0.93,0,0,0-.64-1,2.64,2.64,0,0,0-.58-0.08,0.12,0.12,0,0,1-.15-0.1c0-.11.09-0.15,0.3-0.15,0.62,0,1.79.06,1.88,0.06S48.06,54,48.62,54c0.21,0,.3,0,0.3.15a0.13,0.13,0,0,1-.15.1,3.23,3.23,0,0,0-.47.06,0.89,0.89,0,0,0-.69,1.06c0,0.6,0,1.12,0,4v3.28Z" transform="translate(-3.93 -5.78)"/><path class="cls-1" d="M54.77,61.42c0,2,0,3.69,0,4a3.94,3.94,0,0,0,.2,1.42c0.24,0.36,1,.75,3.17.75a6.25,6.25,0,0,0,4.43-1.73,6.51,6.51,0,0,0,1.49-4.45,6.66,6.66,0,0,0-1.79-4.7c-1.75-1.84-3.88-2.11-6.1-2.11a4.92,4.92,0,0,0-1.21.13,0.33,0.33,0,0,0-.22.37c0,0.64,0,2.54,0,4v2.31Zm-1.6-2c0-2.91,0-3.43,0-4a0.91,0.91,0,0,0-.8-1.06,3.8,3.8,0,0,0-.63-0.06,0.13,0.13,0,0,1-.15-0.11c0-.11.09-0.15,0.3-0.15,0.84,0,2,.06,2.1.06S55.35,54,56.46,54c1.85,0,5.26-.17,7.47,2.12a6.67,6.67,0,0,1,1.8,4.73,7.61,7.61,0,0,1-2,5.26,7.41,7.41,0,0,1-5.65,2.14c-1.6,0-3.95-.22-4.13-0.22s-1.26.06-1.83,0.06c-0.2,0-.3,0-0.3-0.15A0.12,0.12,0,0,1,52,67.83a2.62,2.62,0,0,0,.56-0.07,1,1,0,0,0,.54-1c0.1-.78.1-2.26,0.1-4V59.41Z" transform="translate(-3.93 -5.78)"/><path class="cls-1" d="M76.74,61.79c0,1.44,0,3.75,0,4,0.06,0.91.06,1.17,0.63,1.45a4.42,4.42,0,0,0,1.64.28,2.49,2.49,0,0,0,2.63-2.64,4.47,4.47,0,0,0-1.81-3.73,3.09,3.09,0,0,0-1.55-.54c-0.25,0-1.17,0-1.45,0a0.11,0.11,0,0,0-.11.13v1.06Zm0-2a0.17,0.17,0,0,0,.13.2A6.36,6.36,0,0,0,78,60.1c1,0,1.3,0,1.7-.48a2.89,2.89,0,0,0,.67-1.88c0-1.55-.69-3.21-2.51-3.21a4.36,4.36,0,0,0-.9.09c-0.16,0-.22.09-0.22,0.2v5Zm-1.49-.41c0-2.91,0-3.43,0-4a0.92,0.92,0,0,0-.8-1.06,3.76,3.76,0,0,0-.63-0.06,0.13,0.13,0,0,1-.15-0.11c0-.11.09-0.15,0.3-0.15,0.84,0,2,.06,2.1.06,0.45,0,1.18-.06,2-0.06,3.06,0,3.73,1.87,3.73,2.8A4.69,4.69,0,0,1,80,60.15a4.35,4.35,0,0,1,3.22,3.93c0,2-1.56,4.06-4.75,4.06C78.08,68.15,76.18,68,76,68s-1.27.06-1.82,0.06c-0.21,0-.3,0-0.3-0.15a0.12,0.12,0,0,1,.15-0.11,2.6,2.6,0,0,0,.56-0.07,1,1,0,0,0,.54-1c0.1-.78.1-2.26,0.1-4V59.41Z" transform="translate(-3.93 -5.78)"/><path class="cls-1" d="M88,61a0.24,0.24,0,0,0,.13.22,5.15,5.15,0,0,0,2,.29,2.4,2.4,0,0,0,1.4-.35,3.4,3.4,0,0,0,1.13-2.87c0-2.33-1.23-3.73-3.22-3.73a5.68,5.68,0,0,0-1.25.11,0.23,0.23,0,0,0-.15.23V61Zm-1.49-1.62c0-2.91,0-3.43,0-4a0.92,0.92,0,0,0-.8-1.06A3.74,3.74,0,0,0,85,54.26a0.13,0.13,0,0,1-.15-0.11C84.9,54,85,54,85.2,54c0.84,0,2,.06,2.1.06S88.93,54,89.5,54a5.78,5.78,0,0,1,3.42.82,3.27,3.27,0,0,1,1.28,2.54c0,1.38-.58,2.76-2.26,4.31,1.53,2,2.8,3.61,3.88,4.77a3.88,3.88,0,0,0,2.27,1.34,4.85,4.85,0,0,0,.73.05,0.16,0.16,0,0,1,.17.11c0,0.11-.11.15-0.45,0.15H97.22a3.78,3.78,0,0,1-2-.36A9.84,9.84,0,0,1,92.71,65c-0.78-1-1.65-2.28-2-2.76a0.31,0.31,0,0,0-.24-0.11l-2.29,0a0.12,0.12,0,0,0-.13.15v0.45c0,1.79,0,3.26.09,4a0.9,0.9,0,0,0,.73,1,7.14,7.14,0,0,0,.84.07,0.12,0.12,0,0,1,.15.11c0,0.1-.1.15-0.3,0.15-1,0-2.2-.06-2.3-0.06S86,68.1,85.48,68.1c-0.21,0-.3,0-0.3-0.15a0.12,0.12,0,0,1,.14-0.11,2.62,2.62,0,0,0,.56-0.07,1,1,0,0,0,.54-1c0.09-.78.09-2.26,0.09-4V59.41Z" transform="translate(-3.93 -5.78)"/><path class="cls-1" d="M105.34,67.65c1.68,0,5.14-1,5.14-6.4,0-4.47-2.72-6.87-5.66-6.87-3.11,0-5.44,2-5.44,6.13,0,4.34,2.61,7.14,6,7.14M105,53.74c4.19,0,7.32,2.65,7.32,7a7.31,7.31,0,0,1-7.44,7.62c-5.11,0-7.23-4-7.23-7.32A7.22,7.22,0,0,1,105,53.74" transform="translate(-3.93 -5.78)"/><path class="cls-1" d="M127.4,65.52h0.07c0.5-1.71,2.22-7.12,2.87-9.51a4.07,4.07,0,0,0,.21-1.19c0-.34-0.21-0.56-1.06-0.56a0.15,0.15,0,0,1-.17-0.13c0-.09.1-0.13,0.32-0.13,0.95,0,1.73.06,1.9,0.06S132.47,54,133,54c0.17,0,.26,0,0.26.11a0.14,0.14,0,0,1-.17.14,2.59,2.59,0,0,0-.63.1c-0.56.2-.86,1-1.22,2-0.82,2.36-2.7,8.29-3.43,10.38-0.48,1.38-.58,1.6-0.78,1.6s-0.3-.25-0.56-1L122.87,57h0c-0.67,1.79-3.22,8.61-3.89,10.35-0.3.78-.39,1-0.62,1s-0.28-.2-0.65-1.48l-3.32-11c-0.3-1-.54-1.27-1-1.45a3.13,3.13,0,0,0-.84-0.12c-0.09,0-.17,0-0.17-0.13s0.11-.13.3-0.13c1,0,2,.06,2.2.06s1-.06,1.92-0.06c0.26,0,.33.06,0.33,0.13s-0.09.13-.18,0.13a1.73,1.73,0,0,0-.73.12,0.47,0.47,0,0,0-.24.44,15.24,15.24,0,0,0,.35,1.72c0.28,1.19,2.22,8,2.5,9h0l3.95-10.62c0.28-.76.36-0.86,0.47-0.86a1.25,1.25,0,0,1,.46.87Z" transform="translate(-3.93 -5.78)"/><path class="cls-1" d="M149.3,61.06a0.26,0.26,0,0,0,.13.22,5.17,5.17,0,0,0,2,.3,2.42,2.42,0,0,0,1.4-.36,3.39,3.39,0,0,0,1.14-2.86c0-2.33-1.23-3.73-3.23-3.73a6,6,0,0,0-1.25.11,0.23,0.23,0,0,0-.15.22v6.1Zm-1.49-1.62c0-2.91,0-3.43,0-4a0.92,0.92,0,0,0-.8-1.06,3.46,3.46,0,0,0-.63-0.06,0.13,0.13,0,0,1-.15-0.11c0-.11.1-0.15,0.3-0.15,0.84,0,2,.05,2.11.05s1.62-.05,2.2-0.05a5.76,5.76,0,0,1,3.41.82,3.27,3.27,0,0,1,1.29,2.54c0,1.38-.58,2.76-2.25,4.31,1.52,2,2.79,3.61,3.87,4.77a3.86,3.86,0,0,0,2.27,1.34,4.53,4.53,0,0,0,.73.06,0.16,0.16,0,0,1,.17.11c0,0.11-.11.15-0.45,0.15h-1.32a3.79,3.79,0,0,1-2-.35A9.66,9.66,0,0,1,154,65c-0.78-1-1.66-2.27-2-2.76a0.31,0.31,0,0,0-.25-0.11l-2.29,0a0.12,0.12,0,0,0-.13.14v0.45c0,1.79,0,3.26.09,4a0.89,0.89,0,0,0,.73,1,7.43,7.43,0,0,0,.84.07,0.12,0.12,0,0,1,.15.11c0,0.09-.09.15-0.3,0.15-1,0-2.2-.06-2.29-0.06s-1.19.06-1.75,0.06c-0.21,0-.3,0-0.3-0.15a0.12,0.12,0,0,1,.15-0.11,2.72,2.72,0,0,0,.56-0.07,1,1,0,0,0,.54-1c0.1-.78.1-2.26,0.1-4V59.44Z" transform="translate(-3.93 -5.78)"/><path class="cls-1" d="M135.81,59.43c0-2.91,0-3.43,0-4a0.91,0.91,0,0,0-.8-1.06,3.21,3.21,0,0,0-.63-0.06,0.13,0.13,0,0,1-.15-0.11c0-.12.1-0.15,0.3-0.15,0.84,0,2,.06,2.1.06s5.75,0,6.17,0a4.73,4.73,0,0,0,.8-0.09,1.33,1.33,0,0,1,.26-0.09c0.05,0,.07.08,0.07,0.17s-0.09.36-.15,0.88c0,0.19-.05,1-0.09,1.23a0.21,0.21,0,0,1-.13.2c-0.11,0-.15-0.1-0.15-0.25a2,2,0,0,0-.11-0.67c-0.13-.3-0.32-0.52-1.33-0.64-0.32,0-4.25-.05-4.46-0.05s-0.12.05-.12,0.19v5.14c0,0.13,0,.18.12,0.18s4.44,0,4.87,0a1.23,1.23,0,0,0,.88-0.26,0.61,0.61,0,0,1,.28-0.24c0.06,0,.09,0,0.09.15s-0.09.43-.15,1c0,0.37-.08,1.06-0.08,1.19s0,0.36-.13.36a0.14,0.14,0,0,1-.13-0.17,1.86,1.86,0,0,0-.08-0.61,0.92,0.92,0,0,0-1-.65c-0.5-.06-4.25-0.09-4.57-0.09a0.12,0.12,0,0,0-.13.13v1.64c0,0.63,0,3.41,0,3.8,0.06,1.29,2.24.92,4.07,0.92a5.32,5.32,0,0,0,1.79-.21,1.49,1.49,0,0,0,.84-1.34c0-.2.08-0.28,0.17-0.28s0.11,0.15.11,0.28a17.54,17.54,0,0,1-.24,1.81c-0.13.48-.28,0.48-1,0.48-2.81,0-6-.11-6.51-0.11-0.09,0-1.27.06-1.83,0.06-0.21,0-.3,0-0.3-0.15a0.12,0.12,0,0,1,.15-0.11,2.48,2.48,0,0,0,.56-0.08,1,1,0,0,0,.54-1c0.1-.78.1-2.26,0.1-4V59.43Z" transform="translate(-3.93 -5.78)"/><path class="cls-1" d="M167.1,66.34a7.14,7.14,0,0,1-2.25-5.52,7.43,7.43,0,0,1,2.09-5.09c1.11-1.12,2.81-2,5.69-2a16.49,16.49,0,0,1,2.7.22,16.05,16.05,0,0,0,1.9.28c0.21,0,.24.09,0.24,0.2s-0.05.37-.09,1,0,1.64-.05,1.92-0.06.39-.17,0.39S177,57.68,177,57.42a2.56,2.56,0,0,0-.79-1.9,6.19,6.19,0,0,0-3.73-1.06c-2.48,0-3.64.73-4.29,1.36a6.26,6.26,0,0,0-1.67,4.87,6.73,6.73,0,0,0,6.73,6.82,4.31,4.31,0,0,0,3.25-.93,3.59,3.59,0,0,0,.69-1.57c0-.2.07-0.28,0.18-0.28s0.13,0.13.13,0.28a19,19,0,0,1-.41,2.39,0.64,0.64,0,0,1-.48.54,10.84,10.84,0,0,1-3.36.43,8.62,8.62,0,0,1-6.15-2" transform="translate(-3.93 -5.78)"/><path class="cls-1" d="M181.92,59.41c0-2.91,0-3.43,0-4a0.92,0.92,0,0,0-.8-1.06,3.24,3.24,0,0,0-.63-0.06,0.13,0.13,0,0,1-.15-0.11c0-.11.09-0.15,0.3-0.15,0.84,0,2,.05,2.11.05s5.75,0,6.17,0a5.78,5.78,0,0,0,.8-0.09,1.43,1.43,0,0,1,.26-0.09c0.06,0,.08.07,0.08,0.17s-0.09.36-.15,0.88c0,0.18-.06,1-0.09,1.23a0.22,0.22,0,0,1-.13.21c-0.12,0-.15-0.09-0.15-0.24a2,2,0,0,0-.11-0.67c-0.13-.3-0.32-0.52-1.32-0.64-0.32,0-4.25,0-4.46,0s-0.11,0-.11.18v5.14c0,0.13,0,.19.11,0.19s4.44,0,4.87,0a1.26,1.26,0,0,0,.88-0.26,0.55,0.55,0,0,1,.28-0.24c0.05,0,.09,0,0.09.15s-0.09.43-.15,1c0,0.37-.08,1.06-0.08,1.19s0,0.35-.13.35a0.14,0.14,0,0,1-.13-0.16,1.9,1.9,0,0,0-.07-0.62,0.92,0.92,0,0,0-1-.65c-0.5-.05-4.25-0.09-4.57-0.09a0.12,0.12,0,0,0-.13.13v1.64c0,0.63,0,3.41,0,3.8,0.06,1.28,2.24.91,4.07,0.91a5.42,5.42,0,0,0,1.79-.2,1.48,1.48,0,0,0,.83-1.34c0-.21.08-0.28,0.17-0.28s0.11,0.15.11,0.28-0.15,1.42-.24,1.81-0.28.49-1,.49c-2.81,0-6-.11-6.51-0.11-0.09,0-1.27.06-1.83,0.06-0.2,0-.29,0-0.29-0.15a0.12,0.12,0,0,1,.15-0.11,2.94,2.94,0,0,0,.56-0.07,1,1,0,0,0,.54-1c0.09-.79.09-2.26,0.09-4V59.41Z" transform="translate(-3.93 -5.78)"/><path class="cls-1" d="M195.43,65.56c0,1.53.23,2,.73,2.16a3.86,3.86,0,0,0,.93.11,0.12,0.12,0,0,1,.15.11c0,0.11-.11.15-0.34,0.15-1.06,0-1.81-.06-2-0.06s-0.95.06-1.79,0.06c-0.18,0-.3,0-0.3-0.15a0.13,0.13,0,0,1,.15-0.11,2.54,2.54,0,0,0,.76-0.11c0.47-.13.56-0.67,0.56-2.37l0-10.67c0-.73.05-0.93,0.21-0.93a2.26,2.26,0,0,1,.65.59c0.28,0.32,3.06,3.32,5.93,6.4,1.85,2,3.88,4.25,4.48,4.86l-0.21-9.47c0-1.21-.15-1.62-0.73-1.77a4.84,4.84,0,0,0-.91-0.09c-0.13,0-.15-0.06-0.15-0.13S203.75,54,204,54c0.84,0,1.73.05,1.94,0.05s0.82-.05,1.59-0.05c0.21,0,.33,0,0.33.13a0.17,0.17,0,0,1-.21.13,1.63,1.63,0,0,0-.45.06c-0.62.13-.69,0.53-0.69,1.66l0,10.92c0,1.23,0,1.32-.17,1.32S205.9,68,204.92,67c-0.2-.19-2.89-2.93-4.87-5.05-2.16-2.33-4.26-4.68-4.86-5.35Z" transform="translate(-3.93 -5.78)"/><path class="cls-1" d="M216.35,62.69c0,1.79,0,3.26.09,4a0.9,0.9,0,0,0,.72,1,8,8,0,0,0,.84.07,0.12,0.12,0,0,1,.15.11c0,0.09-.09.15-0.3,0.15-1,0-2.2-.06-2.29-0.06s-1.27.06-1.83,0.06c-0.2,0-.3,0-0.3-0.15a0.12,0.12,0,0,1,.15-0.11,2.83,2.83,0,0,0,.56-0.07,1,1,0,0,0,.55-1c0.09-.79.09-2.26,0.09-4V54.81l-2.76,0c-1.16,0-1.61.15-1.91,0.59a3.64,3.64,0,0,0-.32.58,0.2,0.2,0,0,1-.19.18c-0.06,0-.09-0.05-0.09-0.17s0.37-1.79.41-1.94a0.66,0.66,0,0,1,.19-0.35,3.5,3.5,0,0,0,.82.22c0.54,0.06,1.25.09,1.47,0.09h7a9.14,9.14,0,0,0,1.84-.18c0.1,0,.1.11,0.1,0.23,0,0.56-.06,1.84-0.06,2.05s-0.06.24-.13,0.24S221,56.34,221,56.07l0-.2c-0.07-.56-0.5-1-2.3-1l-2.35,0v7.88Z" transform="translate(-3.93 -5.78)"/><path class="cls-1" d="M238.17,61a0.25,0.25,0,0,0,.13.23,5.12,5.12,0,0,0,2,.3,2.42,2.42,0,0,0,1.4-.36,3.39,3.39,0,0,0,1.14-2.87c0-2.33-1.23-3.73-3.23-3.73a5.42,5.42,0,0,0-1.25.11,0.22,0.22,0,0,0-.15.22V61Zm-1.49-1.62c0-2.91,0-3.43,0-4a0.92,0.92,0,0,0-.8-1.06,3.63,3.63,0,0,0-.63-0.06,0.13,0.13,0,0,1-.15-0.11c0-.11.1-0.15,0.3-0.15,0.84,0,2,.06,2.11.06s1.62-.06,2.2-0.06a5.73,5.73,0,0,1,3.41.82,3.25,3.25,0,0,1,1.29,2.53c0,1.38-.58,2.75-2.25,4.31,1.53,2,2.79,3.62,3.87,4.77a3.86,3.86,0,0,0,2.28,1.34,4.37,4.37,0,0,0,.72.06,0.16,0.16,0,0,1,.17.11c0,0.11-.11.15-0.45,0.15h-1.32a3.76,3.76,0,0,1-2-.36A9.71,9.71,0,0,1,242.86,65c-0.78-1-1.66-2.27-2-2.76a0.3,0.3,0,0,0-.25-0.11l-2.29,0a0.12,0.12,0,0,0-.13.15v0.45c0,1.79,0,3.27.09,4a0.91,0.91,0,0,0,.73,1,8.23,8.23,0,0,0,.84.07A0.12,0.12,0,0,1,240,68c0,0.09-.1.15-0.3,0.15-1,0-2.2-.06-2.29-0.06s-1.19.06-1.75,0.06c-0.21,0-.3,0-0.3-0.15a0.12,0.12,0,0,1,.15-0.11,3,3,0,0,0,.56-0.07,1,1,0,0,0,.54-1c0.1-.78.1-2.26,0.1-4V59.42Z" transform="translate(-3.93 -5.78)"/><path class="cls-1" d="M224.68,59.41c0-2.91,0-3.43,0-4a0.92,0.92,0,0,0-.8-1.06,3.43,3.43,0,0,0-.63-0.05,0.13,0.13,0,0,1-.15-0.12c0-.11.09-0.15,0.3-0.15,0.84,0,2,.05,2.11.05s5.75,0,6.18,0a6.16,6.16,0,0,0,.8-0.09,1.16,1.16,0,0,1,.26-0.1c0.06,0,.07.07,0.07,0.17s-0.09.36-.15,0.88c0,0.18-.05,1-0.09,1.23a0.21,0.21,0,0,1-.13.2c-0.11,0-.15-0.09-0.15-0.24a2,2,0,0,0-.11-0.67c-0.13-.3-0.32-0.52-1.32-0.64-0.32,0-4.25-.06-4.46-0.06s-0.11.06-.11,0.19v5.14c0,0.13,0,.19.11,0.19s4.44,0,4.87,0A1.23,1.23,0,0,0,232.1,60a0.57,0.57,0,0,1,.28-0.24c0.06,0,.1,0,0.1.15s-0.1.43-.15,1c0,0.37-.08,1.06-0.08,1.19s0,0.35-.13.35a0.14,0.14,0,0,1-.13-0.16,2,2,0,0,0-.07-0.62,0.93,0.93,0,0,0-1-.65c-0.5-.05-4.25-0.1-4.57-0.1a0.12,0.12,0,0,0-.13.14v1.64c0,0.63,0,3.41,0,3.8,0.06,1.29,2.24.91,4.07,0.91a5.39,5.39,0,0,0,1.79-.2,1.49,1.49,0,0,0,.84-1.34c0-.21.07-0.28,0.17-0.28s0.11,0.15.11,0.28-0.15,1.42-.24,1.81-0.28.48-1,.48c-2.81,0-6-.11-6.51-0.11-0.09,0-1.27.05-1.83,0.05-0.21,0-.3,0-0.3-0.15a0.12,0.12,0,0,1,.15-0.12,2.94,2.94,0,0,0,.56-0.07,1,1,0,0,0,.54-1c0.09-.79.09-2.26,0.09-4V59.41Z" transform="translate(-3.93 -5.78)"/><path class="cls-1" d="M126.53,40.39A82.89,82.89,0,0,1,71.69,19.77h0L71,19.21h0l-0.45-.4H85.27a21.39,21.39,0,0,1,14.25-5.41h0a21.38,21.38,0,0,1,14.15,5.32h0a51.19,51.19,0,0,1,34.1-12.94h0a51.17,51.17,0,0,1,34.18,13h0L182,18.87h0L182.21,19l-0.19.17a82.94,82.94,0,0,1-55.48,21.19h0Zm0-.46h0a82.47,82.47,0,0,0,54.73-20.67H113.76a32,32,0,0,1-21.33,8.11h0a31.93,31.93,0,0,1-15.71-4.1h0a82.39,82.39,0,0,0,49.81,16.67h0Zm-34.1-13a31.49,31.49,0,0,0,20.63-7.65H99.61a21.35,21.35,0,0,1-14.23,5.41h0a21.39,21.39,0,0,1-7.72-1.43h0a31.49,31.49,0,0,0,14.81,3.67h0Zm-7.09-2.7h0A20.87,20.87,0,0,0,95.8,21.44h0a10.82,10.82,0,0,1-3.36.53h0a10.8,10.8,0,0,1-7.08-2.63h0A10.81,10.81,0,0,1,78.28,22h0a10.85,10.85,0,0,1-3.36-.53h0a20.88,20.88,0,0,0,10.42,2.77h0Zm7.1-2.7a10.34,10.34,0,0,0,6.45-2.25H86a10.34,10.34,0,0,0,6.45,2.25h0Zm-14.16,0a10.33,10.33,0,0,0,6.45-2.25H71.82a10.37,10.37,0,0,0,6.46,2.25h0Zm21.38-2.3h0Zm14.15,0h0Zm67.44-.4A50.72,50.72,0,0,0,147.77,6.24h0a50.72,50.72,0,0,0-33.5,12.56h67ZM113,18.8a10.33,10.33,0,0,0-6.44-2.24h0a10.32,10.32,0,0,0-6.44,2.24H113Zm-14.15,0a10.34,10.34,0,0,0-6.44-2.24h0A10.34,10.34,0,0,0,86,18.8H98.88Zm0.63-.07a10.79,10.79,0,0,1,7.08-2.63h0a10.8,10.8,0,0,1,3.38.54h0a20.9,20.9,0,0,0-10.45-2.78h0a20.92,20.92,0,0,0-10.44,2.77h0a10.86,10.86,0,0,1,3.36-.53h0a10.81,10.81,0,0,1,7.07,2.63h0Z" transform="translate(-3.93 -5.78)"/></svg>