<svg id="Layer_1" data-name="Layer 1" xmlns="http://www.w3.org/2000/svg" viewBox="0 0 836.49 314.93"><defs><style>.cls-1{fill:#787878;}</style></defs><title>footer-bgnd</title><path class="cls-1" d="M759.91,243.08a117.79,117.79,0,0,1,.68,83.25h0q-0.2.57-.41,1.14h0l-0.3.8-0.31-.8h0l-7.18-18.64a30.39,30.39,0,0,1-14.45-16.13h0a30.39,30.39,0,0,1-.17-21.48h0a72.75,72.75,0,0,1-34.59-38.61h0a72.72,72.72,0,0,1-.2-52h0l0.06-.14h0l0.13-.33,0.32,0.16a117.86,117.86,0,0,1,56.45,62.75h0Zm-0.61.24h0a117.19,117.19,0,0,0-55.38-62h0l34.5,89.52A45.41,45.41,0,0,1,760.06,295h0a45.38,45.38,0,0,1,2.59,22.93h0a117.08,117.08,0,0,0-3.36-74.57h0Zm0.16,51.87a44.75,44.75,0,0,0-20.68-23.44h0l6.87,17.83a30.34,30.34,0,0,1,14.45,16.1h0l0,0h0a30.39,30.39,0,0,1,2,11h0a44.75,44.75,0,0,0-2.7-21.51h0Zm0,10.78v0h0v0h0a29.66,29.66,0,0,0-9-12.4h0a15.38,15.38,0,0,1,2.43,4.19h0a15.35,15.35,0,0,1,.13,10.73h0a15.36,15.36,0,0,1,7.1,8h0a15.42,15.42,0,0,1,1,4.73h0A29.67,29.67,0,0,0,759.49,306h0Zm-7.2-8a14.69,14.69,0,0,0-6.28-7.4h0l6.6,17.11a14.7,14.7,0,0,0-.32-9.71h0Zm7.23,18.77a14.68,14.68,0,0,0-6.28-7.4h0l6.6,17.12a14.74,14.74,0,0,0-.32-9.71h0Zm-14-27.17h0Zm-7.24-18.77h0Zm-35-89.22a72.07,72.07,0,0,0,.46,50.83h0a72.08,72.08,0,0,0,33.78,38h0l-34.23-88.83h0ZM738.17,272a14.68,14.68,0,0,0,.32,9.69h0a14.67,14.67,0,0,0,6.27,7.4h0L738.17,272h0Zm7.23,18.76a14.69,14.69,0,0,0,.32,9.69h0a14.7,14.7,0,0,0,6.27,7.41h0l-6.59-17.1h0ZM745,290a15.33,15.33,0,0,1-7.1-8h0a15.35,15.35,0,0,1-1-4.75h0a29.7,29.7,0,0,0,1.65,15.28h0a29.72,29.72,0,0,0,9,12.43h0a15.43,15.43,0,0,1-2.42-4.19h0A15.36,15.36,0,0,1,745,290h0Z" transform="translate(-86.96 -13.36)"/><path class="cls-1" d="M517.19,279.58A171.35,171.35,0,0,1,399.3,307.35h0l-1.76-.22h0v0h0l-1.23-.17,1-.69h0L421.48,290a44.21,44.21,0,0,1,18.23-25.7h0a44.2,44.2,0,0,1,30.42-7.16h0a105.83,105.83,0,0,1,43.63-61.5h0a105.79,105.79,0,0,1,73.67-17h0l0.22,0h0l0.51,0.08-0.13.51a171.45,171.45,0,0,1-70.83,100.28h0Zm-0.53-.79h0a170.48,170.48,0,0,0,70.13-98.54h0L470.92,258a66.06,66.06,0,0,1-27.27,38.49h0A66,66,0,0,1,412,307.56h0a170.32,170.32,0,0,0,104.71-28.78h0Zm-73.54,16.93a65.1,65.1,0,0,0,26.59-36.89h0l-23.08,15.49A44.13,44.13,0,0,1,428.44,300h0l-0.06,0h0a44.21,44.21,0,0,1-14.9,6.43h0a65.1,65.1,0,0,0,29.65-10.75h0Zm-15.28,3.53,0,0h0l0,0h0a43.14,43.14,0,0,0,14.69-16.76h0a22.37,22.37,0,0,1-5.16,4.79h0a22.33,22.33,0,0,1-15.18,3.64h0a22.34,22.34,0,0,1-9.12,12.67h0a22.43,22.43,0,0,1-6.38,3h0a43.16,43.16,0,0,0,21.08-7.25h0Zm9.07-12.81a21.38,21.38,0,0,0,8.48-11.29h0L423.24,290a21.39,21.39,0,0,0,13.67-3.57h0Zm-24.3,16.31a21.36,21.36,0,0,0,8.48-11.29h0l-22.16,14.87a21.44,21.44,0,0,0,13.68-3.58h0Zm34-28.58h0Zm24.29-16.32h0Zm115.3-78.38a104.85,104.85,0,0,0-72,17h0a104.86,104.86,0,0,0-43,60.15h0l115-77.17h0Zm-117.11,78.6a21.35,21.35,0,0,0-13.64,3.57h0A21.34,21.34,0,0,0,447,272.91h0l22.12-14.84h0Zm-24.29,16.3a21.38,21.38,0,0,0-13.64,3.57h0a21.38,21.38,0,0,0-8.49,11.28h0l22.13-14.85h0Zm1-.86A22.3,22.3,0,0,1,455,260.84h0a22.33,22.33,0,0,1,6.42-3h0a43.21,43.21,0,0,0-21.14,7.26h0a43.24,43.24,0,0,0-14.72,16.79h0a22.45,22.45,0,0,1,5.16-4.78h0a22.34,22.34,0,0,1,15.17-3.63h0Z" transform="translate(-86.96 -13.36)"/><path class="cls-1" d="M874,258.08h0a69.27,69.27,0,0,1-31.29-38.49l-0.07-.2,0.2,0h0l0.09,0h0a42.74,42.74,0,0,1,30.16,4.85h0a42.76,42.76,0,0,1,19.27,23.6h0a17.86,17.86,0,0,1,12.46,2.06h0a17.86,17.86,0,0,1,8,9.86L923,265.56h0l0.44,0.25-0.49.1h0l-0.7.14h0a69.23,69.23,0,0,1-48.28-8h0Zm0.19-.33a68.81,68.81,0,0,0,43,8.74h0a26.67,26.67,0,0,1-13.08-3.59h0a26.69,26.69,0,0,1-12-14.77l-48.84-28.18h0a68.88,68.88,0,0,0,31,37.8h0Zm30.1,4.81a26.3,26.3,0,0,0,12.25,3.52h0a17.86,17.86,0,0,1-6.18-2.19h0a17.83,17.83,0,0,1-8-9.85l-9.73-5.61h0a26.3,26.3,0,0,0,11.73,14.14h0Zm6.26,1a17.44,17.44,0,0,0,8.69,2.35h0a9.06,9.06,0,0,1-2.65-1h0a9,9,0,0,1-4-4.86h0a9,9,0,0,1-6.22-1.05h0a9,9,0,0,1-2.21-1.79h0a17.43,17.43,0,0,0,6.38,6.35h0Zm-4-4.91a8.64,8.64,0,0,0,5.61,1.07l-9.34-5.39h0a8.64,8.64,0,0,0,3.73,4.32h0Zm10.24,5.91a8.66,8.66,0,0,0,5.61,1.07L913,260.24h0a8.63,8.63,0,0,0,3.73,4.32h0ZM902.27,254h0ZM892,248.06h0Zm-48.62-28.44,48.46,28h0a42.36,42.36,0,0,0-19-23.07h0a42.36,42.36,0,0,0-29.47-4.89h0Zm49.36,28.48,9.32,5.38h0a8.62,8.62,0,0,0-3.73-4.31h0a8.63,8.63,0,0,0-5.6-1.07h0ZM903,254l9.33,5.38h0a8.64,8.64,0,0,0-3.73-4.32h0A8.64,8.64,0,0,0,903,254h0Zm-0.43-.32a9,9,0,0,1,6.21,1.05h0a9.07,9.07,0,0,1,2.21,1.79h0a17.47,17.47,0,0,0-6.39-6.36h0a17.46,17.46,0,0,0-8.72-2.35h0a9,9,0,0,1,2.67,1h0a9,9,0,0,1,4,4.86h0Z" transform="translate(-86.96 -13.36)"/><path class="cls-1" d="M144.36,196.15l0,0h0a266.23,266.23,0,0,1-56.86-182l0.05-.81,0.8,0.12h0l0.35,0.05h0A164.27,164.27,0,0,1,189.42,73.82h0a164.33,164.33,0,0,1,35.15,111.68h0a68.64,68.64,0,0,1,41.54,25.09h0a68.65,68.65,0,0,1,14.68,46.66l27.94,35.44h0l1.2,1.52-1.9-.33h0v0h0q-1.35-.24-2.7-0.51h0a266.08,266.08,0,0,1-161-97.25h0Zm1.16-.92a264.47,264.47,0,0,0,141,92.45h0A102.51,102.51,0,0,1,245,256.23h0A102.58,102.58,0,0,1,223,186.35L88.85,16.16h0A264.72,264.72,0,0,0,145.5,195.22l0,0h0Zm100.6,60.08a101.08,101.08,0,0,0,38.69,30h0a68.65,68.65,0,0,1-19-16.61h0l-0.08-.09h0A68.53,68.53,0,0,1,251.14,222l-26.73-33.9h0a101.08,101.08,0,0,0,21.71,67.2h0Zm20.9,12.5a67,67,0,0,0,27.69,20.77h0a34.83,34.83,0,0,1-8-7.41h0a34.69,34.69,0,0,1-7.43-23.07h0a34.68,34.68,0,0,1-20.7-12.62h0a34.73,34.73,0,0,1-5.34-9.54h0a67,67,0,0,0,13.72,31.78h0l0,0h0l0,0h0Zm-7.3-23.25a33.21,33.21,0,0,0,18.5,11.8l-25.65-32.53h0a33.19,33.19,0,0,0,7.15,20.73h0Zm28.13,35.68a33.29,33.29,0,0,0,18.5,11.81L280.7,259.52h0a33.17,33.17,0,0,0,7.15,20.73h0Zm-36.68-58.46h0ZM223.06,186.1h0ZM90,15.28L223.17,184.15h0A162.83,162.83,0,0,0,188.26,74.74h0A162.81,162.81,0,0,0,90,15.28h0Zm135.59,172,25.61,32.48h0a33.14,33.14,0,0,0-7.15-20.7h0a33.16,33.16,0,0,0-18.46-11.78h0Zm28.12,35.67,25.62,32.5h0a33.2,33.2,0,0,0-7.17-20.73h0a33.19,33.19,0,0,0-18.45-11.78h0Zm-1.07-1.74a34.69,34.69,0,0,1,20.69,12.61h0a34.86,34.86,0,0,1,5.35,9.53h0A67.14,67.14,0,0,0,265,211.51h0a67.09,67.09,0,0,0-27.78-20.81h0a34.68,34.68,0,0,1,8.07,7.44h0a34.63,34.63,0,0,1,7.43,23.06h0Z" transform="translate(-86.96 -13.36)"/></svg>